<svg width="251" height="250" viewBox="0 0 251 250" fill="none" xmlns="http://www.w3.org/2000/svg">
<path d="M22.6143 111.359C23.4412 99.1983 26.9096 48.1954 65.3153 23.6641C109.268 -4.41007 175.859 16.9525 209.18 59.4871C229.483 85.4031 244.919 128.734 228.095 165.523C199.486 228.081 91.6109 241.072 46.6873 195.614C18.8035 167.399 21.7975 123.369 22.6143 111.359Z" fill="#EDF6FF"/>
<path d="M211.963 208.645C211.817 208.645 211.671 208.637 211.524 208.621L114.974 197.824C113.94 197.708 113.011 197.194 112.357 196.376C111.704 195.558 111.408 194.538 111.523 193.504L125.736 66.411C125.851 65.3769 126.366 64.4475 127.184 63.7939C128.002 63.1404 129.022 62.8443 130.056 62.9598L226.606 73.7567C227.64 73.8724 228.569 74.3867 229.223 75.2048C229.876 76.0229 230.173 77.0429 230.057 78.0771L215.845 205.17C215.729 206.204 215.215 207.133 214.397 207.787C213.695 208.347 212.844 208.645 211.963 208.645ZM129.619 63.8772C128.951 63.8772 128.305 64.1035 127.771 64.5298C127.15 65.0263 126.759 65.7316 126.672 66.5157L112.459 193.608C112.371 194.392 112.597 195.167 113.093 195.788C113.59 196.41 114.295 196.8 115.079 196.888L211.629 207.685C212.413 207.773 213.187 207.548 213.809 207.051C214.43 206.554 214.821 205.849 214.909 205.065L229.121 77.9725C229.209 77.1883 228.984 76.4142 228.487 75.7926C227.991 75.171 227.285 74.7805 226.501 74.6928L129.951 63.8958C129.84 63.8833 129.729 63.8772 129.619 63.8772Z" fill="#444444"/>
<path d="M199.69 212.342L106.178 185.996C104.358 185.483 103.288 183.574 103.801 181.753L138.48 58.6605C138.993 56.84 140.903 55.7701 142.723 56.283L236.235 82.6287C238.055 83.1416 239.125 85.0509 238.612 86.8714L203.932 209.964C203.419 211.785 201.51 212.855 199.69 212.342Z" fill="#4AA1F3"/>
<path d="M205.651 99.0188L160.252 86.2283C158.906 85.8489 158.114 84.4366 158.494 83.0898C158.873 81.7431 160.285 80.9517 161.632 81.3311L207.031 94.1216C208.377 94.501 209.169 95.9133 208.789 97.2601C208.41 98.6067 206.998 99.3982 205.651 99.0188Z" fill="#B3CEF6"/>
<path d="M214.696 116.935L143.185 96.7876C141.838 96.4082 141.046 94.9959 141.426 93.6492C141.805 92.3024 143.218 91.511 144.564 91.8904L216.076 112.038C217.423 112.417 218.214 113.83 217.835 115.176C217.455 116.523 216.043 117.315 214.696 116.935Z" fill="#B3CEF6"/>
<path d="M211.52 128.209L140.008 108.062C138.661 107.682 137.87 106.27 138.249 104.923C138.629 103.576 140.041 102.785 141.388 103.164L212.9 123.312C214.246 123.691 215.038 125.104 214.658 126.45C214.279 127.797 212.867 128.589 211.52 128.209Z" fill="#B3CEF6"/>
<path d="M208.344 139.483L136.832 119.336C135.485 118.956 134.694 117.544 135.073 116.197C135.452 114.85 136.865 114.059 138.212 114.439L209.723 134.586C211.07 134.965 211.862 136.378 211.482 137.725C211.103 139.071 209.69 139.863 208.344 139.483Z" fill="#B3CEF6"/>
<path d="M205.167 150.758L133.656 130.61C132.309 130.23 131.517 128.818 131.897 127.471C132.276 126.125 133.689 125.333 135.035 125.713L206.547 145.86C207.894 146.24 208.685 147.652 208.306 148.999C207.926 150.346 206.514 151.137 205.167 150.758Z" fill="#B3CEF6"/>
<path d="M201.991 162.032L130.479 141.884C129.132 141.505 128.341 140.092 128.72 138.746C129.1 137.399 130.512 136.607 131.859 136.987L203.371 157.134C204.717 157.514 205.509 158.926 205.129 160.273C204.75 161.62 203.338 162.411 201.991 162.032Z" fill="#B3CEF6"/>
<path d="M198.815 173.306L127.303 153.158C125.956 152.779 125.165 151.366 125.544 150.02C125.923 148.673 127.336 147.881 128.682 148.261L200.194 168.408C201.541 168.788 202.332 170.2 201.953 171.547C201.574 172.894 200.161 173.685 198.815 173.306Z" fill="#B3CEF6"/>
<path d="M195.638 184.58L124.126 164.432C122.78 164.053 121.988 162.641 122.368 161.294C122.747 159.947 124.159 159.156 125.506 159.535L197.018 179.683C198.365 180.062 199.156 181.475 198.777 182.821C198.397 184.168 196.985 184.959 195.638 184.58Z" fill="#B3CEF6"/>
<path d="M192.462 195.854L120.95 175.706C119.603 175.327 118.812 173.915 119.191 172.568C119.571 171.221 120.983 170.43 122.33 170.809L193.842 190.957C195.188 191.336 195.98 192.748 195.6 194.095C195.221 195.442 193.809 196.233 192.462 195.854Z" fill="#B3CEF6"/>
<path d="M67.3974 183.178C67.3924 183.178 67.3874 183.178 67.3825 183.178C67.2401 183.178 67.1137 183.173 66.9967 183.163C66.979 183.161 66.9618 183.159 66.9446 183.157L66.9274 183.155C66.8209 183.145 66.7106 183.129 66.5997 183.11L66.5766 183.107C66.5472 183.102 66.5179 183.097 66.4887 183.091C66.3712 183.068 66.2531 183.04 66.1383 183.008C66.105 182.999 66.0721 182.989 66.0392 182.979L66.0175 182.972C65.925 182.944 65.8329 182.913 65.7432 182.879L65.7354 182.876C65.6937 182.861 65.6521 182.845 65.6108 182.828C65.518 182.79 65.426 182.749 65.3285 182.701C65.2814 182.678 65.2351 182.655 65.189 182.631C65.0804 182.573 64.9868 182.52 64.9019 182.467C64.86 182.441 64.819 182.413 64.7782 182.385L64.7413 182.36C64.6803 182.318 64.6199 182.276 64.5607 182.232C64.5125 182.196 64.4657 182.159 64.4194 182.121C64.3568 182.07 64.2922 182.015 64.2228 181.952L64.1964 181.928C64.1692 181.904 64.1422 181.879 64.1158 181.854C64.0137 181.755 63.9221 181.659 63.8362 181.56C63.8224 181.544 63.8109 181.53 63.7996 181.516L63.7917 181.506C63.7179 181.418 63.6443 181.324 63.5745 181.227C63.55 181.193 63.5272 181.159 63.5042 181.125L63.499 181.118C63.442 181.033 63.3861 180.945 63.3332 180.854L63.3182 180.829C63.3017 180.801 63.2851 180.773 63.2692 180.744C63.1926 180.605 63.1293 180.477 63.0758 180.354L62.7841 179.684L12.6483 64.4698C12.5902 64.3364 12.5378 64.1974 12.4881 64.0446C12.4774 64.0121 12.4684 63.9792 12.4594 63.9462C12.4559 63.9332 12.4524 63.9201 12.4485 63.907C12.4231 63.8199 12.3942 63.7174 12.3706 63.6123C12.3611 63.5698 12.3535 63.5278 12.3459 63.4858L12.3393 63.4494C12.3196 63.3439 12.3056 63.2568 12.2955 63.1756C12.2884 63.1185 12.2829 63.0619 12.278 63.005C12.27 62.9143 12.2646 62.8241 12.262 62.7371C12.2602 62.681 12.2591 62.6239 12.2593 62.5667C12.2598 62.4852 12.2632 62.3982 12.2695 62.3L12.2713 62.2707C12.2741 62.2241 12.277 62.1777 12.2816 62.1314C12.2912 62.0369 12.305 61.9462 12.3172 61.8686L12.3238 61.8248C12.3297 61.7843 12.3357 61.7439 12.3434 61.7036C12.3598 61.6196 12.3792 61.5432 12.398 61.4693L12.403 61.4495C12.4596 61.2247 12.5251 61.0214 12.6031 60.8289C12.6123 60.8064 12.6223 60.7844 12.6326 60.7625C12.6357 60.7558 12.639 60.749 12.642 60.7421C12.6983 60.6109 12.7523 60.4968 12.8077 60.3924C12.824 60.3617 12.8413 60.3318 12.8587 60.3021L12.8787 60.2675C12.9421 60.1562 12.9984 60.0644 13.0561 59.9783C13.0839 59.9366 13.1137 59.8953 13.1435 59.854L13.1519 59.8424C13.2173 59.7518 13.2812 59.6692 13.3472 59.5898C13.3852 59.544 13.424 59.4989 13.4638 59.4546C13.5292 59.3818 13.5999 59.3083 13.6803 59.2299L13.6914 59.2192C13.7317 59.1799 13.772 59.1408 13.8139 59.1029C13.9011 59.0245 13.9903 58.9532 14.0585 58.8998L14.0937 58.8718C14.129 58.8435 14.1645 58.8154 14.2016 58.7886C14.3001 58.7174 14.3985 58.6554 14.4903 58.5989C14.502 58.5917 14.5143 58.5835 14.5267 58.5755C14.5591 58.5544 14.5917 58.5335 14.6256 58.5142C14.7817 58.4251 14.9313 58.3497 15.083 58.2837L105.522 18.9286C105.672 18.863 105.829 18.8049 106.002 18.7511C106.038 18.7397 106.076 18.7301 106.113 18.7208C106.128 18.7171 106.142 18.7136 106.157 18.7095C106.256 18.6824 106.37 18.6518 106.49 18.628C106.537 18.6188 106.583 18.6117 106.629 18.6049L106.674 18.5982C106.77 18.5832 106.874 18.5681 106.984 18.5584C107.039 18.5535 107.094 18.5507 107.149 18.548L107.173 18.5469C107.284 18.5416 107.384 18.54 107.478 18.5416C107.541 18.5427 107.603 18.5451 107.665 18.5488C107.763 18.5542 107.863 18.5634 107.971 18.5767L107.981 18.578C108.036 18.5849 108.092 18.5918 108.148 18.6008C108.243 18.6165 108.344 18.6368 108.463 18.6648L108.503 18.6736C108.542 18.6823 108.58 18.6911 108.619 18.7016C108.726 18.7304 108.837 18.7659 108.97 18.8129C108.978 18.816 108.987 18.8189 108.997 18.8218C109.023 18.8302 109.049 18.839 109.075 18.8488C109.272 18.9242 109.469 19.0169 109.677 19.1319L109.703 19.1461C109.763 19.1791 109.825 19.2133 109.89 19.2535C109.924 19.2753 109.956 19.2973 109.988 19.3194L110.025 19.3442C110.095 19.3913 110.171 19.4436 110.249 19.5023C110.286 19.5307 110.321 19.5595 110.356 19.5883L110.374 19.6031C110.452 19.6669 110.521 19.7263 110.583 19.7834C110.622 19.8201 110.661 19.8573 110.699 19.8949C110.764 19.9593 110.829 20.0268 110.891 20.0961C110.928 20.1371 110.964 20.1779 110.999 20.2201C111.054 20.2857 111.109 20.3566 111.173 20.4433L111.195 20.4725C111.22 20.5061 111.245 20.5397 111.269 20.5745C111.328 20.661 111.382 20.7497 111.432 20.8326C111.439 20.8445 111.446 20.8558 111.453 20.8673C111.471 20.8963 111.489 20.9254 111.506 20.9556C111.584 21.0977 111.65 21.2309 111.708 21.3628L162.135 137.247C162.189 137.37 162.238 137.499 162.289 137.654C162.299 137.685 162.308 137.715 162.317 137.746L162.326 137.776C162.356 137.876 162.383 137.977 162.406 138.078L162.411 138.1C162.419 138.136 162.427 138.171 162.435 138.207C162.458 138.323 162.476 138.441 162.491 138.557L162.492 138.569C162.495 138.587 162.498 138.605 162.5 138.623C162.514 138.756 162.522 138.888 162.524 139.031C162.525 139.066 162.524 139.103 162.524 139.14L162.523 139.176C162.522 139.27 162.518 139.354 162.513 139.434C162.509 139.494 162.504 139.554 162.498 139.614C162.49 139.686 162.479 139.757 162.468 139.829C162.432 140.066 162.378 140.3 162.309 140.523C162.3 140.55 162.291 140.575 162.282 140.601L162.271 140.633C162.227 140.763 162.177 140.89 162.124 141.012C162.106 141.054 162.087 141.096 162.067 141.138C162.01 141.259 161.946 141.379 161.873 141.504L161.858 141.53C161.845 141.553 161.833 141.576 161.819 141.598C161.72 141.758 161.621 141.9 161.517 142.032C161.507 142.045 161.496 142.058 161.484 142.071C161.39 142.188 161.285 142.306 161.173 142.419C161.146 142.447 161.116 142.475 161.086 142.503L161.056 142.531C160.965 142.617 160.872 142.699 160.781 142.773C160.734 142.811 160.685 142.849 160.636 142.886C160.543 142.956 160.442 143.024 160.328 143.096L160.291 143.12C160.257 143.142 160.222 143.164 160.187 143.185C160.014 143.285 159.855 143.366 159.7 143.433L69.2622 182.789C69.1419 182.841 69.0104 182.89 68.86 182.94L68.8479 182.944C68.8234 182.952 68.799 182.961 68.7744 182.968C68.6421 183.009 68.5091 183.045 68.3802 183.072C68.363 183.076 68.3456 183.08 68.3281 183.083L68.307 183.087C68.1814 183.112 68.0592 183.131 67.9416 183.145L67.927 183.147C67.9105 183.15 67.894 183.152 67.8774 183.154C67.7535 183.167 67.6251 183.174 67.4849 183.177C67.4563 183.178 67.4269 183.178 67.3974 183.178ZM107.406 19.4829C107.348 19.4829 107.286 19.4845 107.218 19.4878L107.194 19.489C107.152 19.491 107.11 19.4929 107.067 19.4967C106.984 19.504 106.899 19.5165 106.819 19.5289L106.768 19.5368C106.736 19.5414 106.704 19.546 106.673 19.5522C106.584 19.5697 106.489 19.5952 106.407 19.6177C106.386 19.6236 106.363 19.6293 106.341 19.6349C106.322 19.6397 106.302 19.6442 106.284 19.6501C106.143 19.694 106.017 19.7404 105.898 19.7923L15.4589 59.1473C15.3388 59.1996 15.2189 59.2601 15.0925 59.3322C15.0746 59.3424 15.0576 59.3538 15.0406 59.3648C15.0222 59.3768 15.0038 59.3887 14.985 59.4003C14.9075 59.448 14.8268 59.4988 14.7539 59.5514C14.7295 59.5691 14.7057 59.5883 14.6816 59.6075L14.6398 59.6407C14.5798 59.6878 14.5099 59.7435 14.4446 59.8024C14.4119 59.8319 14.3804 59.8627 14.3487 59.8935L14.3378 59.9041C14.2728 59.9676 14.2161 60.0264 14.1647 60.0836C14.1328 60.1191 14.1019 60.1551 14.0715 60.1916C14.0193 60.2544 13.9683 60.3205 13.9155 60.3936L13.9069 60.4056C13.884 60.4373 13.861 60.4689 13.8393 60.5015C13.794 60.5691 13.7491 60.6425 13.6974 60.7332L13.6721 60.7769C13.6612 60.7957 13.65 60.8145 13.6397 60.8339C13.5969 60.9148 13.5537 61.006 13.508 61.1125C13.5012 61.1286 13.4935 61.1452 13.4857 61.1619C13.4825 61.1688 13.4791 61.1756 13.4761 61.1827C13.4146 61.3343 13.3624 61.497 13.3163 61.68L13.311 61.7013C13.2947 61.7654 13.2792 61.826 13.2681 61.883C13.2632 61.9078 13.2596 61.9339 13.2558 61.9602L13.2476 62.015C13.2373 62.0803 13.2258 62.1552 13.2188 62.2252C13.2154 62.259 13.2135 62.2929 13.2114 62.3269L13.2094 62.3596C13.2042 62.4405 13.2015 62.5096 13.2012 62.572C13.2009 62.6168 13.2019 62.6623 13.2033 62.7079C13.2054 62.778 13.2097 62.8496 13.216 62.9221C13.22 62.9677 13.2243 63.013 13.23 63.0585C13.2378 63.1206 13.249 63.19 13.2651 63.2766L13.2726 63.3178C13.278 63.3476 13.2833 63.3774 13.2899 63.4071C13.3074 63.4856 13.3302 63.5664 13.3523 63.642C13.3578 63.6606 13.3631 63.6799 13.3683 63.6993C13.3731 63.717 13.3777 63.7349 13.3835 63.7526C13.4239 63.8767 13.4659 63.9883 13.5118 64.0938L63.9396 179.978C63.9814 180.074 64.0323 180.176 64.0949 180.29C64.106 180.31 64.1175 180.33 64.129 180.349L64.1464 180.379C64.1887 180.451 64.2334 180.522 64.2792 180.589L64.2849 180.598C64.3028 180.624 64.3206 180.651 64.3393 180.677C64.3944 180.753 64.453 180.828 64.5128 180.899C64.5235 180.912 64.5326 180.923 64.5415 180.935L64.5494 180.945C64.6146 181.02 64.6878 181.097 64.7704 181.176C64.7882 181.194 64.8063 181.21 64.8244 181.226L64.8562 181.254C64.9122 181.305 64.9634 181.349 65.0128 181.389C65.0507 181.42 65.0879 181.45 65.1258 181.478C65.1726 181.513 65.2213 181.547 65.2701 181.58L65.3118 181.608C65.3407 181.628 65.3695 181.648 65.3993 181.667C65.466 181.708 65.5412 181.751 65.6296 181.798C65.666 181.817 65.7035 181.836 65.7414 181.854C65.8203 181.893 65.8941 181.926 65.9669 181.956C65.9992 181.969 66.0329 181.982 66.0666 181.994C66.1447 182.024 66.2187 182.049 66.2927 182.071L66.3155 182.078C66.3403 182.086 66.365 182.094 66.39 182.1C66.4816 182.126 66.576 182.148 66.6706 182.167C66.691 182.171 66.7106 182.174 66.7302 182.177L66.758 182.182C66.8483 182.197 66.9366 182.209 67.0214 182.218C67.034 182.219 67.0463 182.221 67.0586 182.222L67.0771 182.224C67.1674 182.232 67.268 182.236 67.3843 182.236C67.4118 182.236 67.4385 182.236 67.4653 182.235C67.5796 182.233 67.682 182.227 67.7792 182.217L67.8297 182.21C67.9239 182.199 68.0217 182.183 68.1213 182.163L68.1804 182.152C68.2826 182.13 68.3885 182.102 68.4956 182.068C68.5149 182.062 68.5327 182.056 68.5506 182.05L68.5637 182.046C68.6891 182.005 68.7917 181.966 68.8867 181.925L159.325 142.57C159.447 142.517 159.574 142.452 159.714 142.371C159.736 142.358 159.758 142.343 159.78 142.329L159.827 142.299C159.92 142.24 160.001 142.186 160.074 142.131C160.113 142.102 160.151 142.072 160.189 142.041C160.262 141.982 160.334 141.919 160.408 141.848L160.445 141.814C160.464 141.796 160.484 141.778 160.502 141.76C160.594 141.666 160.679 141.57 160.755 141.475C160.766 141.462 160.774 141.453 160.782 141.444C160.863 141.34 160.94 141.229 161.018 141.103C161.024 141.094 161.029 141.084 161.035 141.074C161.043 141.059 161.052 141.043 161.061 141.028C161.12 140.926 161.171 140.831 161.217 140.735L161.217 140.735C161.233 140.701 161.247 140.668 161.262 140.634C161.305 140.536 161.345 140.434 161.38 140.331L161.393 140.292C161.399 140.275 161.405 140.259 161.41 140.242C161.466 140.064 161.509 139.877 161.538 139.686C161.547 139.629 161.556 139.572 161.562 139.514C161.567 139.466 161.571 139.418 161.574 139.37C161.578 139.308 161.581 139.24 161.582 139.164L161.583 139.121C161.583 139.097 161.584 139.073 161.583 139.049C161.581 138.932 161.575 138.827 161.564 138.725L161.562 138.714C161.56 138.7 161.558 138.685 161.556 138.671C161.545 138.578 161.53 138.484 161.511 138.391C161.506 138.364 161.5 138.338 161.494 138.311L161.489 138.287C161.47 138.208 161.449 138.127 161.425 138.048L161.415 138.013C161.408 137.991 161.402 137.97 161.395 137.949C161.353 137.823 161.314 137.719 161.273 137.623L110.845 21.7391C110.799 21.6347 110.746 21.5278 110.682 21.4123C110.673 21.3963 110.663 21.3806 110.653 21.3648C110.643 21.3481 110.633 21.3315 110.623 21.3146C110.575 21.235 110.535 21.1693 110.493 21.1084C110.476 21.0835 110.458 21.0599 110.441 21.0363L110.416 21.0028C110.363 20.9318 110.32 20.8755 110.278 20.8255C110.249 20.7917 110.22 20.7587 110.19 20.7258C110.141 20.6706 110.09 20.6168 110.038 20.5661C110.008 20.5359 109.976 20.5055 109.944 20.4757C109.896 20.4315 109.843 20.3858 109.777 20.3323L109.757 20.3155C109.731 20.2938 109.704 20.272 109.677 20.2513C109.621 20.2084 109.558 20.1657 109.499 20.1261L109.453 20.0943C109.432 20.0802 109.412 20.066 109.391 20.0528C109.346 20.0248 109.298 19.9985 109.249 19.972L109.222 19.9567C109.052 19.8628 108.894 19.7884 108.738 19.7288C108.728 19.7248 108.717 19.7217 108.707 19.7184C108.689 19.7126 108.672 19.7068 108.654 19.7005C108.546 19.6618 108.456 19.6334 108.373 19.6111C108.348 19.6042 108.323 19.5988 108.298 19.5932L108.25 19.5823C108.151 19.5591 108.07 19.5427 107.997 19.5308C107.953 19.5238 107.909 19.5184 107.865 19.513L107.855 19.5117C107.769 19.501 107.689 19.4936 107.612 19.4893C107.561 19.4863 107.511 19.4844 107.461 19.4835C107.443 19.4831 107.425 19.4829 107.406 19.4829Z" fill="#444444"/>
<path opacity="0.2" d="M153.907 155.631C153.93 155.596 153.953 155.561 153.975 155.526C154.041 155.424 154.102 155.319 154.159 155.211C154.175 155.18 154.193 155.149 154.208 155.118C154.303 154.926 154.383 154.728 154.448 154.523C154.468 154.461 154.488 154.399 154.505 154.336C154.519 154.284 154.531 154.231 154.543 154.178C154.561 154.103 154.575 154.027 154.589 153.951C154.596 153.908 154.604 153.865 154.611 153.821C154.627 153.701 154.64 153.58 154.646 153.458C154.647 153.438 154.646 153.418 154.647 153.398C154.651 153.291 154.651 153.185 154.647 153.077C154.645 153.038 154.642 152.999 154.64 152.959C154.633 152.866 154.624 152.773 154.611 152.68C154.606 152.642 154.602 152.604 154.595 152.566C154.575 152.438 154.55 152.31 154.517 152.182L154.334 151.478L123.264 31.3393L122.873 29.8272C122.839 29.6935 122.797 29.5635 122.751 29.4363C122.736 29.3956 122.718 29.357 122.702 29.3171C122.668 29.2313 122.633 29.1464 122.594 29.064C122.573 29.0198 122.55 28.977 122.527 28.934C122.488 28.8584 122.448 28.784 122.405 28.7116C122.379 28.669 122.353 28.6277 122.326 28.5862C122.28 28.5161 122.233 28.4478 122.184 28.381C122.155 28.3418 122.126 28.3029 122.096 28.2648C122.044 28.1993 121.99 28.1362 121.935 28.0742C121.903 28.0387 121.872 28.0027 121.839 27.9683C121.782 27.9086 121.723 27.8519 121.662 27.796C121.627 27.763 121.592 27.7287 121.556 27.6969C121.5 27.6487 121.442 27.604 121.383 27.5588C121.225 27.4353 121.061 27.3211 120.887 27.2211C120.858 27.2045 120.828 27.1905 120.799 27.1746C120.702 27.1218 120.604 27.0713 120.503 27.0263C120.459 27.0067 120.414 26.99 120.37 26.9719C120.28 26.9355 120.19 26.9007 120.098 26.8704C120.047 26.8538 119.996 26.839 119.944 26.8241C119.856 26.7986 119.767 26.7757 119.677 26.7561C119.622 26.744 119.567 26.7332 119.512 26.7233C119.422 26.7074 119.331 26.6952 119.24 26.6851C119.183 26.679 119.127 26.6725 119.071 26.6686C118.977 26.6622 118.883 26.6606 118.789 26.6603C118.734 26.6603 118.678 26.6586 118.623 26.6606C118.521 26.6646 118.418 26.6749 118.315 26.6864C118.267 26.6917 118.219 26.6941 118.171 26.7011C118.021 26.723 117.87 26.7522 117.719 26.7911L22.2299 51.4862C22.0792 51.5253 21.9331 51.5732 21.7906 51.6269C21.7454 51.6439 21.7028 51.6649 21.6585 51.6834C21.5625 51.7235 21.4672 51.7644 21.3755 51.8108C21.3266 51.8356 21.2801 51.8633 21.2325 51.8898C21.149 51.9362 21.0665 51.9837 20.9869 52.0355C20.9403 52.0657 20.8955 52.0976 20.8503 52.1296C20.7737 52.1838 20.6987 52.2397 20.6261 52.2986C20.5844 52.3325 20.5436 52.3671 20.5033 52.4025C20.4311 52.4658 20.3617 52.5315 20.2943 52.5993C20.259 52.6347 20.2237 52.67 20.1898 52.7067C20.1206 52.7813 20.0554 52.8589 19.992 52.9381C19.9648 52.9721 19.9366 53.005 19.9106 53.0397C19.8407 53.1326 19.7761 53.2289 19.7141 53.3271C19.6989 53.3512 19.6821 53.374 19.6674 53.3985C19.566 53.5667 19.4786 53.7428 19.4013 53.9238C19.3708 53.9951 19.3397 54.0661 19.3131 54.1391C19.2957 54.1867 19.2818 54.2354 19.2662 54.2837C19.2417 54.359 19.2178 54.4344 19.1976 54.5111C19.1846 54.5604 19.1741 54.6102 19.163 54.6601C19.1455 54.7376 19.1295 54.8154 19.1166 54.8942C19.1082 54.9448 19.1012 54.9956 19.0948 55.0466C19.0846 55.1263 19.0769 55.2064 19.0713 55.287C19.0678 55.3379 19.0645 55.3888 19.0628 55.4402C19.06 55.5232 19.0609 55.6063 19.0631 55.6899C19.0644 55.7395 19.0648 55.7888 19.0679 55.8387C19.0735 55.9292 19.0841 56.0201 19.0957 56.111C19.1011 56.154 19.1044 56.1966 19.1112 56.2396C19.1324 56.3733 19.1591 56.507 19.1936 56.6407L19.5853 58.1556L50.6538 178.288L50.8368 178.996C50.8699 179.124 50.9103 179.248 50.9539 179.37C50.967 179.406 50.9815 179.442 50.9956 179.477C51.0297 179.565 51.0664 179.651 51.1058 179.735C51.1227 179.771 51.1392 179.807 51.157 179.842C51.2052 179.938 51.2567 180.031 51.3114 180.121C51.322 180.139 51.3312 180.157 51.342 180.175C51.4068 180.278 51.4764 180.378 51.5493 180.475C51.5757 180.51 51.6037 180.543 51.631 180.577C51.6798 180.638 51.7296 180.697 51.7814 180.755C51.8174 180.795 51.8537 180.835 51.8911 180.873C51.9371 180.921 51.9848 180.966 52.0329 181.011C52.0759 181.052 52.1181 181.093 52.1628 181.132C52.2372 181.196 52.3144 181.257 52.393 181.316C52.431 181.345 52.4694 181.372 52.5083 181.4C52.5836 181.452 52.6602 181.503 52.7388 181.551C52.7762 181.573 52.8141 181.595 52.8521 181.616C52.9273 181.659 53.0037 181.699 53.0813 181.737C53.1158 181.754 53.1501 181.771 53.1851 181.787C53.2834 181.832 53.3834 181.873 53.4851 181.91C53.5167 181.921 53.5487 181.932 53.5806 181.942C53.6742 181.974 53.769 182.003 53.865 182.028C53.8855 182.034 53.9057 182.04 53.9264 182.045C54.0384 182.073 54.1522 182.094 54.2666 182.113C54.2969 182.118 54.3271 182.122 54.3575 182.126C54.4738 182.143 54.5908 182.155 54.709 182.161C54.7285 182.162 54.7483 182.162 54.7681 182.162C54.8775 182.167 54.9875 182.167 55.098 182.162C55.1212 182.161 55.1442 182.161 55.1674 182.16C55.2887 182.153 55.4106 182.14 55.5327 182.123C55.5591 182.119 55.5855 182.114 55.612 182.11C55.7384 182.089 55.8649 182.065 55.9912 182.032L151.48 157.337C151.641 157.295 151.796 157.243 151.947 157.184C151.994 157.166 152.039 157.145 152.085 157.125C152.189 157.081 152.29 157.034 152.389 156.982C152.438 156.956 152.486 156.93 152.533 156.902C152.629 156.847 152.722 156.788 152.812 156.726C152.852 156.699 152.893 156.672 152.932 156.643C153.047 156.558 153.158 156.468 153.263 156.372C153.272 156.364 153.282 156.357 153.291 156.348C153.408 156.24 153.517 156.125 153.62 156.006C153.642 155.981 153.661 155.954 153.682 155.929C153.761 155.833 153.836 155.733 153.907 155.631Z" fill="#3A7EC1"/>
<path d="M123.412 26.2755L155.055 148.631C155.278 149.493 155.218 150.361 154.931 151.14C154.47 152.402 153.417 153.423 152.019 153.785L56.5297 178.48C55.1313 178.842 53.715 178.459 52.7 177.579C52.0715 177.037 51.5984 176.307 51.3753 175.444L19.732 53.089C19.4752 52.0958 19.5921 51.0945 19.9974 50.2349C20.5146 49.1332 21.5001 48.2626 22.7682 47.9347L118.257 23.2394C119.525 22.9115 120.809 23.1952 121.792 23.9058C122.566 24.4607 123.155 25.2824 123.412 26.2755Z" fill="#E5A755"/>
<path d="M123.412 26.2755L123.803 27.7877L119.086 42.47L75.3671 54.3568L31.3635 65.1567L20.1239 54.6038L19.7321 53.0889C19.1466 50.825 20.507 48.5194 22.7683 47.9346L118.257 23.2394C120.519 22.6546 122.826 24.0115 123.412 26.2755Z" fill="#D89444"/>
<path d="M154.873 147.926L155.055 148.63C155.64 150.892 154.28 153.2 152.019 153.785L56.5298 178.48C54.2684 179.065 51.9601 177.705 51.3754 175.444L51.1924 174.736L54.4672 165.136C54.7394 164.335 55.4486 163.678 56.2735 163.467L144.962 140.531C145.786 140.318 146.724 140.546 147.354 141.114L154.873 147.926Z" fill="#D89444"/>
<path d="M154.931 151.14C154.47 152.402 153.417 153.423 152.018 153.785L56.5296 178.48C55.1312 178.841 53.7149 178.459 52.7 177.579L54.6935 165.199C54.8284 164.359 55.4485 163.678 56.2726 163.465L144.961 140.528C145.785 140.315 146.658 140.61 147.186 141.279L154.931 151.14Z" fill="#F9C067"/>
<path d="M121.792 23.9058L119.153 42.2103C119.079 42.7294 118.7 43.1502 118.195 43.2807L32.539 65.433C32.0312 65.5642 31.4981 65.3796 31.1799 64.9616L19.9976 50.2349C20.5148 49.1332 21.5003 48.2626 22.7683 47.9347L118.257 23.2394C119.525 22.9115 120.809 23.1952 121.792 23.9058Z" fill="#F9C067"/>
<path d="M80.582 82.5539C78.797 82.5539 77.1641 81.3523 76.697 79.5459L68.2706 46.9632C68.0032 45.9293 68.1562 44.8501 68.7015 43.9244C69.2467 42.9987 70.1164 42.3416 71.1504 42.0742L73.1001 41.57C75.2417 41.0159 77.4351 42.3079 77.989 44.4498L86.4155 77.0325C86.6829 78.0663 86.5298 79.1455 85.9846 80.0713C85.4393 80.997 84.5696 81.654 83.5357 81.9215L81.586 82.4257C81.2504 82.5124 80.9134 82.5539 80.582 82.5539ZM74.1041 42.5882C73.8673 42.5882 73.6267 42.6179 73.387 42.6799L71.4373 43.1841C70.6998 43.3748 70.079 43.8444 69.6891 44.5062C69.2992 45.1681 69.1895 45.9388 69.3802 46.6762L77.8066 79.2589C78.2023 80.7887 79.7686 81.7114 81.2988 81.3159L83.2485 80.8116C83.9858 80.621 84.6067 80.1514 84.9966 79.4895C85.3864 78.8276 85.4961 78.0571 85.3054 77.3196L76.879 44.7369C76.5454 43.4467 75.3789 42.5882 74.1041 42.5882Z" fill="#444444"/>
<path d="M77.2957 50.4686C79.4836 48.2807 79.4836 44.7334 77.2957 42.5456C75.1078 40.3577 71.5605 40.3577 69.3727 42.5456C67.1848 44.7334 67.1848 48.2807 69.3726 50.4686C71.5605 52.6565 75.1078 52.6565 77.2957 50.4686Z" fill="white"/>
<path d="M81.5632 83.9244C84.6573 83.9244 87.1656 81.4161 87.1656 78.322C87.1656 75.2278 84.6573 72.7195 81.5632 72.7195C78.469 72.7195 75.9607 75.2278 75.9607 78.322C75.9607 81.4161 78.469 83.9244 81.5632 83.9244Z" fill="white"/>
<path opacity="0.2" d="M94.5555 224.885C102.37 217.071 102.37 204.401 94.5555 196.586C86.741 188.772 74.071 188.772 66.2565 196.586C58.4419 204.401 58.4419 217.071 66.2565 224.885C74.071 232.7 86.741 232.7 94.5555 224.885Z" fill="#3A7EC1"/>
<path d="M78.9391 228.185C89.9907 228.185 98.9498 219.226 98.9498 208.174C98.9498 197.122 89.9907 188.163 78.9391 188.163C67.8875 188.163 58.9285 197.122 58.9285 208.174C58.9285 219.226 67.8875 228.185 78.9391 228.185Z" fill="#4AA1F3"/>
<path d="M73.3664 201.103L69.4987 204.749C65.9594 208.085 65.793 213.71 69.1291 217.249L69.8443 218.008C73.1803 221.547 78.8056 221.714 82.3448 218.378L86.2126 214.732C87.0353 213.957 87.0736 212.661 86.2981 211.838L76.2602 201.189C75.4848 200.366 74.1892 200.328 73.3664 201.103Z" fill="white"/>
<path d="M79.1245 202.449L81.7215 200.001C83.5129 198.313 86.344 198.397 88.0325 200.188C89.721 201.98 89.6373 204.811 87.8459 206.499L85.249 208.947L86.9357 210.737L89.5327 208.289C92.3108 205.67 92.4407 201.28 89.822 198.501C87.2034 195.723 82.8129 195.593 80.0347 198.212L77.4377 200.66L79.1245 202.449Z" fill="white"/>
<path d="M78.5704 211.98C79.4106 211.188 79.4497 209.865 78.6577 209.024C77.8657 208.184 76.5426 208.145 75.7024 208.937C75.072 209.531 74.8926 210.424 75.1767 211.188L73.8741 212.416C73.5486 212.723 73.5333 213.24 73.8401 213.565C74.1467 213.891 74.664 213.906 74.9894 213.599L76.292 212.371C77.0378 212.7 77.94 212.574 78.5704 211.98Z" fill="#52D1BD"/>
<path opacity="0.25" d="M193.506 60.4186L115.062 52.2425C111.99 51.9223 109.24 54.1534 108.919 57.2258L96.1007 180.214C95.7804 183.287 98.0113 186.037 101.084 186.357L196.472 196.299C199.544 196.62 202.294 194.389 202.615 191.316L213.667 85.2718L193.506 60.4186Z" fill="#3A7EC1"/>
<path d="M190.438 58.055L111.994 49.879C108.922 49.5587 106.172 51.7899 105.851 54.8623L93.0325 177.851C92.7123 180.923 94.9433 183.673 98.0159 183.994L193.404 193.936C196.476 194.256 199.226 192.025 199.547 188.952L210.599 82.9082L190.438 58.055Z" fill="white"/>
<path d="M188.672 74.9994C188.351 78.0718 190.583 80.8222 193.655 81.1424L210.599 82.9085L190.438 58.0552L188.672 74.9994Z" fill="#EDEDED"/>
<path d="M192.779 80.98L210.302 85.76L210.599 82.9084L192.779 80.98Z" fill="#CECECE"/>
<path d="M180.845 84.4906L132.874 79.4907C131.581 79.3559 130.633 78.1874 130.768 76.894C130.902 75.6005 132.071 74.6526 133.364 74.7874L181.335 79.7873C182.628 79.9221 183.576 81.0906 183.441 82.384C183.307 83.6775 182.138 84.6254 180.845 84.4906Z" fill="#4FCE75"/>
<path d="M194.847 102.086L115.544 93.8201C114.25 93.6852 113.303 92.5167 113.437 91.2233C113.572 89.9299 114.741 88.982 116.034 89.1168L195.337 97.3824C196.631 97.5172 197.579 98.6857 197.444 99.9791C197.309 101.272 196.141 102.22 194.847 102.086Z" fill="#E4ECF9"/>
<path d="M193.599 114.057L114.296 105.792C113.003 105.657 112.055 104.488 112.19 103.195C112.324 101.902 113.493 100.954 114.786 101.088L194.09 109.354C195.383 109.489 196.331 110.657 196.196 111.951C196.061 113.244 194.893 114.192 193.599 114.057Z" fill="#E4ECF9"/>
<path d="M192.352 126.029L113.048 117.763C111.755 117.629 110.807 116.46 110.942 115.167C111.077 113.873 112.245 112.925 113.538 113.06L192.842 121.326C194.135 121.461 195.083 122.629 194.948 123.923C194.814 125.216 193.645 126.164 192.352 126.029Z" fill="#E4ECF9"/>
<path d="M191.104 138.001L111.801 129.735C110.507 129.6 109.559 128.432 109.694 127.138C109.829 125.845 110.997 124.897 112.291 125.032L191.594 133.297C192.888 133.432 193.836 134.601 193.701 135.894C193.566 137.187 192.397 138.135 191.104 138.001Z" fill="#E4ECF9"/>
<path d="M189.856 149.972L110.553 141.707C109.259 141.572 108.312 140.403 108.446 139.11C108.581 137.816 109.75 136.869 111.043 137.003L190.346 145.269C191.64 145.404 192.588 146.572 192.453 147.866C192.318 149.159 191.15 150.107 189.856 149.972Z" fill="#E4ECF9"/>
<path d="M188.608 161.944L109.305 153.678C108.011 153.543 107.064 152.375 107.198 151.081C107.333 149.788 108.502 148.84 109.795 148.975L189.098 157.241C190.392 157.375 191.34 158.544 191.205 159.837C191.07 161.131 189.902 162.079 188.608 161.944Z" fill="#E4ECF9"/>
<path d="M162.033 175.474C162.012 175.091 161.609 174.857 161.291 175.117C160.868 175.461 160.43 175.801 159.94 176.047C159.704 176.141 159.469 176.235 159.232 176.329C158.763 176.576 158.501 176.38 158.446 175.741C158.873 175.353 158.296 174.715 157.852 175.077C157.305 175.523 156.58 176.128 155.807 176.032C155.582 176.004 155.336 175.905 155.093 175.79C155.249 175.668 155.398 175.537 155.536 175.374C155.645 175.246 155.612 175.065 155.561 174.925C155.419 174.532 155.223 174.272 155.071 173.999C156.911 172.162 158.493 169.786 159.226 167.467C159.368 167.018 158.853 166.736 158.507 166.993C156.886 168.193 155.413 169.708 154.456 171.501C154.118 172.134 153.832 172.822 153.951 173.556C153.963 173.631 153.99 173.702 154.011 173.775C153.56 174.193 153.101 174.586 152.634 174.92C151.981 175.387 151.296 175.774 150.527 176.014C149.978 176.185 149.154 176.453 148.777 175.917C150.022 175.219 151.027 174.231 150.492 172.999C149.686 171.145 147.761 173.941 147.661 175.502C147.055 175.784 146.416 175.988 145.767 176.146C145.211 176.282 145.396 177.154 145.956 177.018C146.403 176.908 147.124 176.687 147.868 176.365C148.924 178.226 152.264 176.322 153.389 175.476C153.725 175.223 154.057 174.946 154.384 174.654C154.64 175.111 154.657 175.034 154.019 175.466C153.699 175.683 153.704 176.129 154.08 176.285C154.775 176.575 155.489 177.017 156.26 176.929C156.499 176.901 156.729 176.824 156.954 176.727C156.974 176.848 157.03 176.962 157.134 177.03C158.357 177.831 159.907 177.167 161.086 176.374C160.882 177.765 160.115 179.129 159.05 180.005C157.366 181.389 155.205 181.051 153.23 180.665C152.674 180.556 152.384 181.4 152.946 181.51C155.1 181.932 157.403 182.291 159.306 180.93C160.97 179.739 162.142 177.527 162.033 175.474ZM149.118 173.853C149.808 173.318 149.337 174.331 149.096 174.579C148.945 174.734 148.764 174.866 148.578 174.989C148.597 174.696 148.923 174.003 149.118 173.853ZM154.923 172.599C155.09 171.906 155.694 171.141 156.119 170.571C156.596 169.931 157.133 169.354 157.709 168.818C157.003 170.274 156.005 171.698 154.869 172.918C154.881 172.817 154.895 172.716 154.923 172.599Z" fill="#E4ECF9"/>
<path d="M189.268 185.032C177.605 183.181 169.622 172.187 171.473 160.524C173.324 148.861 184.318 140.879 195.981 142.73C207.644 144.581 215.627 155.574 213.776 167.238C211.925 178.901 200.931 186.883 189.268 185.032ZM195.255 147.303C186.114 145.852 177.497 152.109 176.046 161.25C174.596 170.391 180.852 179.008 189.993 180.459C199.134 181.909 207.751 175.653 209.202 166.512C210.653 157.371 204.396 148.753 195.255 147.303Z" fill="#E4ECF9"/>
<path d="M223.82 148.797L223.671 148.82C221.89 149.106 220.212 149.535 218.59 150.042L216.176 150.827L213.86 151.748C210.79 153 207.86 154.444 205.076 156.09C202.208 157.621 199.585 159.488 196.973 161.371C195.514 162.434 194.108 163.569 192.728 164.742C191.943 164.02 191.134 163.317 190.29 162.639C189.164 161.653 187.89 160.775 186.649 159.872C185.358 159.006 184.042 158.158 182.572 157.422L182.437 157.354C182.34 157.306 182.22 157.31 182.125 157.376C181.984 157.472 181.948 157.664 182.044 157.805C185.339 162.627 188.737 167.374 192.136 172.12C192.322 172.372 192.681 172.432 192.933 172.247C198.187 168.522 203.413 164.761 208.573 160.907L216.345 155.171C218.95 153.278 221.483 151.286 224.055 149.348C224.143 149.282 224.192 149.169 224.174 149.053C224.147 148.884 223.988 148.77 223.82 148.797Z" fill="#4FCE75"/>
<path d="M154.65 31.4018C159.233 31.4018 162.949 27.6865 162.949 23.1035C162.949 18.5204 159.233 14.8052 154.65 14.8052C150.067 14.8052 146.352 18.5204 146.352 23.1035C146.352 27.6865 150.067 31.4018 154.65 31.4018Z" fill="#2D79C0"/>
<path d="M178.888 230.907C180.757 229.038 180.757 226.008 178.888 224.139C177.019 222.27 173.988 222.27 172.119 224.139C170.25 226.008 170.25 229.038 172.119 230.907C173.988 232.777 177.019 232.777 178.888 230.907Z" fill="#2D79C0"/>
</svg>
