<svg width="24" height="24" viewBox="0 0 24 24" fill="none" xmlns="http://www.w3.org/2000/svg">
<path d="M0 12C0 5.37258 5.37258 0 12 0C18.6274 0 24 5.37258 24 12C24 18.6274 18.6274 24 12 24C5.37258 24 0 18.6274 0 12Z" fill="#037BEC"/>
<mask id="mask0_1031_17502" style="mask-type:alpha" maskUnits="userSpaceOnUse" x="6" y="6" width="12" height="12">
<rect x="6.85714" y="6.85498" width="10.29" height="10.29" fill="#D9D9D9"/>
</mask>
<g mask="url(#mask0_1031_17502)">
<path d="M9.00089 14.1437V11.1424H9.85839V14.1437H9.00089ZM11.5734 14.1437V11.1424H12.4309V14.1437H11.5734ZM7.71464 15.8587V15.0012H16.2896V15.8587H7.71464ZM14.1459 14.1437V11.1424H15.0034V14.1437H14.1459ZM7.71464 10.2849V9.42744L12.0021 7.28369L16.2896 9.42744V10.2849H7.71464Z" fill="white"/>
</g>
</svg>
