<svg width="24" height="24" viewBox="0 0 24 24" fill="none" xmlns="http://www.w3.org/2000/svg">
<path d="M0 12C0 5.37258 5.37258 0 12 0C18.6274 0 24 5.37258 24 12C24 18.6274 18.6274 24 12 24C5.37258 24 0 18.6274 0 12Z" fill="#037BEC"/>
<mask id="mask0_1034_17682" style="mask-type:alpha" maskUnits="userSpaceOnUse" x="6" y="6" width="12" height="12">
<rect x="6.85714" y="6.85498" width="10.29" height="10.29" fill="#D9D9D9"/>
</mask>
<g mask="url(#mask0_1034_17682)">
<path d="M12.1736 16.2874L13.1062 15.4299C13.8708 14.7153 14.3781 14.1704 14.6282 13.7953C14.8783 13.4201 15.0034 13.0182 15.0034 12.5894C15.0034 12.4036 14.9784 12.2286 14.9284 12.0642C14.8783 11.8999 14.8033 11.7355 14.7033 11.5712H15.4321C15.668 11.5712 15.8698 11.6551 16.0378 11.823C16.2057 11.991 16.2896 12.1928 16.2896 12.4287V16.2874H12.1736ZM7.71464 16.2874V12.4287C7.71464 12.1928 7.79682 11.991 7.96117 11.823C8.12553 11.6551 8.32919 11.5712 8.57214 11.5712H9.2903C9.1974 11.7212 9.12595 11.8838 9.07592 12.0589C9.0259 12.2339 9.00089 12.4108 9.00089 12.5894C9.00089 13.0182 9.12059 13.4201 9.35997 13.7953C9.59936 14.1704 10.1085 14.7153 10.8874 15.4299L11.8306 16.2874H7.71464ZM15.0034 11.1424C14.639 11.1424 14.3335 11.0191 14.0869 10.7726C13.8404 10.5261 13.7171 10.2206 13.7171 9.85615C13.7171 9.49886 13.8404 9.19516 14.0869 8.94506C14.3335 8.69495 14.639 8.5699 15.0034 8.5699C15.3607 8.5699 15.6644 8.69495 15.9145 8.94506C16.1646 9.19516 16.2896 9.49886 16.2896 9.85615C16.2896 10.2206 16.1646 10.5261 15.9145 10.7726C15.6644 11.0191 15.3607 11.1424 15.0034 11.1424ZM12.0021 10.7137C11.5805 10.7137 11.225 10.5689 10.9356 10.2795C10.6462 9.99014 10.5015 9.63463 10.5015 9.21303C10.5015 8.79857 10.6462 8.44485 10.9356 8.15187C11.225 7.85889 11.5805 7.7124 12.0021 7.7124C12.4166 7.7124 12.7703 7.85889 13.0633 8.15187C13.3563 8.44485 13.5028 8.79857 13.5028 9.21303C13.5028 9.63463 13.3563 9.99014 13.0633 10.2795C12.7703 10.5689 12.4166 10.7137 12.0021 10.7137ZM9.85839 12.5894C9.85839 12.8824 10.0013 13.2111 10.2871 13.5756C10.573 13.94 11.1411 14.5081 11.9914 15.2798C12.8346 14.5224 13.4045 13.9596 13.7011 13.5916C13.9976 13.2236 14.1459 12.8896 14.1459 12.5894C14.1459 12.3036 14.0494 12.0624 13.8565 11.8659C13.6635 11.6694 13.4313 11.5712 13.1598 11.5712C12.9954 11.5712 12.8418 11.6105 12.6989 11.6891C12.5559 11.7677 12.4309 11.8641 12.3237 11.9785L11.9914 12.3215L11.6699 11.9892C11.5698 11.882 11.4555 11.7855 11.3269 11.6998C11.1982 11.614 11.0375 11.5712 10.8445 11.5712C10.5515 11.5712 10.3139 11.6694 10.1317 11.8659C9.9495 12.0624 9.85839 12.3036 9.85839 12.5894ZM9.00089 11.1424C8.63646 11.1424 8.33097 11.0191 8.08444 10.7726C7.83791 10.5261 7.71464 10.2206 7.71464 9.85615C7.71464 9.49886 7.83791 9.19516 8.08444 8.94506C8.33097 8.69495 8.63646 8.5699 9.00089 8.5699C9.35819 8.5699 9.66188 8.69495 9.91199 8.94506C10.1621 9.19516 10.2871 9.49886 10.2871 9.85615C10.2871 10.2206 10.1621 10.5261 9.91199 10.7726C9.66188 11.0191 9.35819 11.1424 9.00089 11.1424Z" fill="white"/>
</g>
</svg>
