<svg width="24" height="24" viewBox="0 0 24 24" fill="none" xmlns="http://www.w3.org/2000/svg">
<path fill-rule="evenodd" clip-rule="evenodd" d="M22.1766 12.2783C22.1766 11.5445 22.1108 10.839 21.9885 10.1616H12.2422V14.1646H17.8115C17.5716 15.4581 16.8425 16.5541 15.7465 17.2879V19.8844H19.0909C21.0477 18.0828 22.1766 15.4299 22.1766 12.2783Z" fill="#4285F4"/>
<path fill-rule="evenodd" clip-rule="evenodd" d="M12.2418 22.3915C15.0359 22.3915 17.3784 21.4648 19.0906 19.8843L15.7462 17.2878C14.8195 17.9087 13.6342 18.2756 12.2418 18.2756C9.54656 18.2756 7.26521 16.4553 6.45145 14.0093H2.99414V16.6905C4.69692 20.0725 8.19656 22.3915 12.2418 22.3915Z" fill="#34A853"/>
<path fill-rule="evenodd" clip-rule="evenodd" d="M6.45155 14.0091C6.24459 13.3882 6.12699 12.7249 6.12699 12.0429C6.12699 11.3608 6.24459 10.6976 6.45155 10.0767V7.39551H2.99425C2.29338 8.79254 1.89355 10.373 1.89355 12.0429C1.89355 13.7127 2.29338 15.2932 2.99425 16.6903L6.45155 14.0091Z" fill="#FBBC05"/>
<path fill-rule="evenodd" clip-rule="evenodd" d="M12.2418 5.81066C13.7612 5.81066 15.1253 6.33279 16.1978 7.35822L19.1659 4.39011C17.3737 2.72026 15.0312 1.69482 12.2418 1.69482C8.19656 1.69482 4.69692 4.01381 2.99414 7.39585L6.45145 10.077C7.26521 7.63104 9.54656 5.81066 12.2418 5.81066Z" fill="#EA4335"/>
</svg>
