<svg width="20" height="20" viewBox="0 0 20 20" fill="none" xmlns="http://www.w3.org/2000/svg">
<g clip-path="url(#clip0_434_4753)">
<path fill-rule="evenodd" clip-rule="evenodd" d="M9.99998 2.49992C5.85784 2.49992 2.49998 5.85778 2.49998 9.99992C2.49998 14.1421 5.85784 17.4999 9.99998 17.4999C14.1421 17.4999 17.5 14.1421 17.5 9.99992C17.5 5.85778 14.1421 2.49992 9.99998 2.49992ZM0.833313 9.99992C0.833313 4.93731 4.93737 0.833252 9.99998 0.833252C15.0626 0.833252 19.1666 4.93731 19.1666 9.99992C19.1666 15.0625 15.0626 19.1666 9.99998 19.1666C4.93737 19.1666 0.833313 15.0625 0.833313 9.99992Z" fill="#050505"/>
<path fill-rule="evenodd" clip-rule="evenodd" d="M10 9.16675C10.4603 9.16675 10.8334 9.53984 10.8334 10.0001V13.3334C10.8334 13.7937 10.4603 14.1667 10 14.1667C9.53978 14.1667 9.16669 13.7937 9.16669 13.3334V10.0001C9.16669 9.53984 9.53978 9.16675 10 9.16675Z" fill="#050505"/>
<path fill-rule="evenodd" clip-rule="evenodd" d="M9.16669 6.66659C9.16669 6.20635 9.53978 5.83325 10 5.83325H10.0084C10.4686 5.83325 10.8417 6.20635 10.8417 6.66659C10.8417 7.12682 10.4686 7.49992 10.0084 7.49992H10C9.53978 7.49992 9.16669 7.12682 9.16669 6.66659Z" fill="#050505"/>
</g>
<defs>
<clipPath id="clip0_434_4753">
<rect width="20" height="20" fill="white"/>
</clipPath>
</defs>
</svg>
