<svg width="24" height="24" viewBox="0 0 24 24" fill="none" xmlns="http://www.w3.org/2000/svg">
<path d="M0 12C0 5.37258 5.37258 0 12 0C18.6274 0 24 5.37258 24 12C24 18.6274 18.6274 24 12 24C5.37258 24 0 18.6274 0 12Z" fill="#037BEC"/>
<path d="M12.2402 15.5131C12.163 15.5902 12.0258 15.6031 11.9358 15.5131C11.8586 15.4359 11.8457 15.2987 11.9358 15.2086L13.3892 13.7552L12.7847 13.1506L11.3312 14.6041C11.2498 14.6899 11.1126 14.6856 11.0268 14.6041C10.9368 14.5141 10.9496 14.3769 11.0268 14.2997L12.4803 12.8462L11.8757 12.2417L10.4223 13.6952C10.3451 13.7723 10.2079 13.7852 10.1179 13.6952C10.0364 13.6137 10.0364 13.4765 10.1179 13.3907L11.5713 11.9373L10.9625 11.3327L9.50904 12.7862C9.43187 12.8634 9.29467 12.8762 9.20463 12.7862C9.12317 12.7005 9.12317 12.5675 9.20463 12.4818L11.0826 10.6039L11.8843 11.4013C12.2916 11.8087 12.9948 11.8044 13.4021 11.4013C13.8223 10.9812 13.8223 10.3037 13.4021 9.88356L12.6046 9.08609L12.7247 8.96604C13.0591 8.63161 13.6036 8.63161 13.938 8.96604L15.7559 10.7839C16.0904 11.1184 16.0904 11.6629 15.7559 11.9973L12.2402 15.5131ZM16.3605 12.6061C17.0293 11.9373 17.0293 10.8525 16.3605 10.1794L14.5426 8.3615C13.8737 7.69265 12.789 7.69265 12.1158 8.3615L11.9958 8.48155L11.8757 8.3615C11.2069 7.69265 10.1222 7.69265 9.44902 8.3615L7.93124 9.87928C7.32242 10.4881 7.26668 11.4356 7.75974 12.1045L8.38143 11.4828C8.21422 11.1612 8.26996 10.7539 8.54007 10.4838L10.0578 8.96604C10.3923 8.63161 10.9368 8.63161 11.2712 8.96604L12.7976 10.4924C12.8747 10.5696 12.8876 10.7068 12.7976 10.7968C12.7075 10.8868 12.5703 10.874 12.4931 10.7968L11.0826 9.3905L8.59581 11.873C8.17563 12.2889 8.17563 12.9706 8.59581 13.3907C8.76302 13.558 8.97739 13.6609 9.20463 13.6909C9.23464 13.9138 9.33326 14.1282 9.50476 14.2997C9.67626 14.4712 9.89063 14.5698 10.1136 14.5998C10.1436 14.8228 10.2422 15.0371 10.4137 15.2086C10.5852 15.3801 10.7996 15.4788 11.0225 15.5088C11.0525 15.7403 11.1554 15.9504 11.3227 16.1176C11.5242 16.3191 11.7943 16.4306 12.0815 16.4306C12.3688 16.4306 12.6389 16.3191 12.8404 16.1176L16.3605 12.6061Z" fill="white"/>
</svg>
