<svg width="56" height="56" viewBox="0 0 56 56" fill="none" xmlns="http://www.w3.org/2000/svg">
<path d="M0 28C0 12.536 12.536 0 28 0C43.464 0 56 12.536 56 28C56 43.464 43.464 56 28 56C12.536 56 0 43.464 0 28Z" fill="#4AA1F3"/>
<path d="M28.222 35.855C28.042 36.035 27.722 36.065 27.512 35.855C27.332 35.675 27.302 35.355 27.512 35.145L30.902 31.755L29.492 30.345L26.102 33.735C25.912 33.935 25.592 33.925 25.392 33.735C25.182 33.525 25.212 33.205 25.392 33.025L28.782 29.635L27.372 28.225L23.982 31.615C23.802 31.795 23.482 31.825 23.272 31.615C23.082 31.425 23.082 31.105 23.272 30.905L26.662 27.515L25.242 26.105L21.852 29.495C21.672 29.675 21.352 29.705 21.142 29.495C20.952 29.295 20.952 28.985 21.142 28.785L25.522 24.405L27.392 26.265C28.342 27.215 29.982 27.205 30.932 26.265C31.912 25.285 31.912 23.705 30.932 22.725L29.072 20.865L29.352 20.585C30.132 19.805 31.402 19.805 32.182 20.585L36.422 24.825C37.202 25.605 37.202 26.875 36.422 27.655L28.222 35.855ZM37.832 29.075C39.392 27.515 39.392 24.985 37.832 23.415L33.592 19.175C32.032 17.615 29.502 17.615 27.932 19.175L27.652 19.455L27.372 19.175C25.812 17.615 23.282 17.615 21.712 19.175L18.172 22.715C16.752 24.135 16.622 26.345 17.772 27.905L19.222 26.455C18.832 25.705 18.962 24.755 19.592 24.125L23.132 20.585C23.912 19.805 25.182 19.805 25.962 20.585L29.522 24.145C29.702 24.325 29.732 24.645 29.522 24.855C29.312 25.065 28.992 25.035 28.812 24.855L25.522 21.575L19.722 27.365C18.742 28.335 18.742 29.925 19.722 30.905C20.112 31.295 20.612 31.535 21.142 31.605C21.212 32.125 21.442 32.625 21.842 33.025C22.242 33.425 22.742 33.655 23.262 33.725C23.332 34.245 23.562 34.745 23.962 35.145C24.362 35.545 24.862 35.775 25.382 35.845C25.452 36.385 25.692 36.875 26.082 37.265C26.552 37.735 27.182 37.995 27.852 37.995C28.522 37.995 29.152 37.735 29.622 37.265L37.832 29.075Z" fill="white"/>
</svg>
