<svg width="28" height="28" viewBox="0 0 28 28" fill="none" xmlns="http://www.w3.org/2000/svg">
<path d="M22 14.0001H16.6667V16.0001H22V14.0001Z" fill="#31475E"/>
<path d="M22 18.0001H16.6667V20.0001H22V18.0001Z" fill="#31475E"/>
<path d="M24.6667 7.33342H18V3.33341C18 1.86675 16.8 0.666748 15.3333 0.666748H12.6667C11.2 0.666748 10 1.86675 10 3.33341V7.33342H3.33333C1.86666 7.33342 0.666664 8.53341 0.666664 10.0001V24.6667C0.666664 26.1334 1.86666 27.3334 3.33333 27.3334H24.6667C26.1333 27.3334 27.3333 26.1334 27.3333 24.6667V10.0001C27.3333 8.53341 26.1333 7.33342 24.6667 7.33342ZM12.6667 3.33341H15.3333V10.0001H12.6667V3.33341ZM24.6667 24.6667H3.33333V10.0001H10C10 11.4667 11.2 12.6667 12.6667 12.6667H15.3333C16.8 12.6667 18 11.4667 18 10.0001H24.6667V24.6667Z" fill="#31475E"/>
<path d="M10 18.0001C11.1046 18.0001 12 17.1047 12 16.0001C12 14.8955 11.1046 14.0001 10 14.0001C8.89543 14.0001 8 14.8955 8 16.0001C8 17.1047 8.89543 18.0001 10 18.0001Z" fill="#31475E"/>
<path d="M12.7733 19.5734C11.92 19.2001 10.9867 19.0001 10 19.0001C9.01333 19.0001 8.08 19.2001 7.22666 19.5734C6.48 19.8934 6 20.6134 6 21.4267V22.0001H14V21.4267C14 20.6134 13.52 19.8934 12.7733 19.5734Z" fill="#31475E"/>
</svg>
