<svg width="20" height="20" viewBox="0 0 20 20" fill="none" xmlns="http://www.w3.org/2000/svg">
<path d="M4.08255 6.73402H5.71554V13.266H4.08255V6.73402ZM9.79802 6.73402H7.34853C6.89946 6.73402 6.53204 7.10144 6.53204 7.55052V12.4495C6.53204 12.8986 6.89946 13.266 7.34853 13.266H9.79802C10.2471 13.266 10.6145 12.8986 10.6145 12.4495V7.55052C10.6145 7.10144 10.2471 6.73402 9.79802 6.73402ZM8.98153 11.633H8.16503V8.36701H8.98153V11.633ZM14.697 6.73402H12.2475C11.7984 6.73402 11.431 7.10144 11.431 7.55052V12.4495C11.431 12.8986 11.7984 13.266 12.2475 13.266H14.697C15.1461 13.266 15.5135 12.8986 15.5135 12.4495V7.55052C15.5135 7.10144 15.1461 6.73402 14.697 6.73402ZM13.8805 11.633H13.064V8.36701H13.8805V11.633Z" fill="#31475E"/>
<path d="M1.63306 3.46803V16.532H17.963V3.46803H1.63306ZM3.26605 14.899V5.10103H16.33V14.899H3.26605Z" fill="#31475E"/>
</svg>
