<svg width="44" height="44" viewBox="0 0 44 44" fill="none" xmlns="http://www.w3.org/2000/svg">
<g clip-path="url(#clip0_217_5888)">
<path d="M44 0H0V44H44V0Z" fill="white"/>
<path d="M36.6896 43.0777C33.1774 43.7605 29.559 43.476 22.1657 42.7616C18.0141 42.3603 9.66684 43.025 5.50029 43.0777C2.46269 43.1161 0 39.5942 0 35.297V22.1901V8.49859C0 4.20145 2.46783 0.465196 5.50029 0.717931C8.31646 0.952665 12.4586 1.88194 16.7766 1.31295C21.9121 0.636209 31.6598 0.0611399 36.6896 0.717931C39.7144 1.11293 42.1899 4.20145 42.1899 8.49859V35.297C42.1899 39.5942 39.699 42.4926 36.6896 43.0777Z" fill="#D1E9FF"/>
<path d="M2.06432 7.09285C2.0103 7.01218 2.10215 6.91404 2.18565 6.96357C3.51845 7.75401 8.22108 10.9395 9.90173 17.3863C11.4394 23.2849 11.552 27.6752 11.5279 29.3101C11.5232 29.6334 11.1722 29.8321 10.8927 29.6696C9.2361 28.7063 4.73866 25.7661 4.06084 21.8948C3.25085 17.2684 4.6424 10.9422 2.06432 7.09285Z" fill="#D1E9FF"/>
<path d="M5.0723 11.4028C5.0723 11.4028 8.85166 15.2043 11.1434 29.1862C11.1434 29.1862 8.09587 15.2566 5.0723 11.4028Z" fill="white"/>
<path d="M7.73882 1.83439C6.51374 4.87022 0.106024 22.8282 15.8774 31.868C15.8774 31.868 23.1392 21.1316 8.21478 1.76813C8.08421 1.59874 7.81885 1.63606 7.73882 1.83439Z" fill="#9DCFFF"/>
<path d="M8.50522 4.87005C8.47309 5.96843 8.48679 7.06993 8.52226 8.16923C8.55866 9.26882 8.62163 10.3675 8.71188 11.4639C8.89319 13.6562 9.17822 15.841 9.6055 17.9982C10.0349 20.1536 10.6038 22.2854 11.398 24.3331C11.5948 24.8455 11.8111 25.35 12.04 25.8484C12.2682 26.3471 12.5156 26.8369 12.7811 27.3162C13.3083 28.277 13.9185 29.1917 14.6128 30.0366L14.6134 30.0374C14.6495 30.0813 14.6432 30.1463 14.5992 30.1825C14.5552 30.2186 14.4902 30.2123 14.454 30.1683L14.4538 30.1679C13.7537 29.3082 13.1411 28.3803 12.6134 27.4084C12.3476 26.9235 12.1005 26.4285 11.8728 25.9251C11.6445 25.422 11.4291 24.913 11.2334 24.3966C10.4437 22.3329 9.8825 20.1903 9.46144 18.0264C9.04262 15.8609 8.76692 13.6702 8.59517 11.4731C8.50971 10.3745 8.45159 9.27376 8.4201 8.17232C8.38954 7.07074 8.38072 5.9691 8.41794 4.86637C8.41876 4.84227 8.43896 4.82338 8.46306 4.82418C8.48718 4.82499 8.50607 4.84521 8.50525 4.86931L8.50522 4.87005Z" fill="white"/>
<path d="M10.8976 5.46024C10.744 11.5053 10.2458 32.3569 10.4836 39.7461C10.5088 40.5289 11.152 41.1573 11.9543 41.1829C15.9226 41.3096 30.4701 41.6307 36.9608 41.365C38.3128 41.3097 39.3879 40.2413 39.4159 38.9214C39.5508 32.5763 39.8484 14.7301 39.1411 6.55473C39.0563 5.57522 38.2683 4.79516 37.2658 4.6973C32.9442 4.2755 18.3341 3.24444 12.7265 3.59948C11.7152 3.66353 10.9227 4.47175 10.8976 5.46024Z" fill="#4AA1F3"/>
<path d="M12.0373 8.1253V13.2482C12.0373 14.2307 12.76 15.0271 13.6514 15.0271H35.8619C36.7533 15.0271 37.476 14.2307 37.476 13.2482V8.1253C37.476 7.1429 36.7533 6.3465 35.8619 6.3465H13.6514C12.76 6.34648 12.0373 7.14289 12.0373 8.1253Z" fill="#9DCFFF"/>
<path d="M36.3431 8.09635C36.1468 7.87261 35.8777 7.7441 35.5953 7.73919L14.8126 7.37527C14.257 7.36553 13.7883 7.82862 13.7364 8.43828L13.3046 13.5194C13.2692 13.9354 13.8903 14.2857 14.6822 14.2963L35.1144 14.5692C35.905 14.5797 36.5586 14.2474 36.5652 13.8316L36.6422 8.93186C36.6471 8.62064 36.5395 8.32002 36.3431 8.09635Z" fill="#D1E9FF"/>
<path opacity="0.59" d="M17.372 20.2214C17.372 21.1252 16.6899 21.8579 15.8484 21.8579H13.9936C13.1522 21.8579 12.47 21.1252 12.47 20.2214C12.47 19.3176 13.1521 18.5849 13.9936 18.5849H15.8484C16.6899 18.5849 17.372 19.3176 17.372 20.2214Z" fill="#08325A"/>
<path opacity="0.59" d="M24.2613 20.2214C24.2613 21.1252 23.5791 21.8579 22.7377 21.8579H20.8829C20.0414 21.8579 19.3593 21.1252 19.3593 20.2214C19.3593 19.3176 20.0414 18.5849 20.8829 18.5849H22.7377C23.5791 18.5849 24.2613 19.3176 24.2613 20.2214Z" fill="#08325A"/>
<path opacity="0.59" d="M30.8855 20.2214C30.8855 21.1252 30.2034 21.8579 29.3619 21.8579H27.5071C26.6657 21.8579 25.9835 21.1252 25.9835 20.2214C25.9835 19.3176 26.6657 18.5849 27.5071 18.5849H29.3619C30.2034 18.5849 30.8855 19.3176 30.8855 20.2214Z" fill="#08325A"/>
<path opacity="0.59" d="M37.6006 20.4619C37.6006 21.3804 36.9074 22.125 36.0523 22.125H34.2596C33.4045 22.125 32.7113 21.3804 32.7113 20.4619C32.7113 19.5435 33.4045 18.799 34.2596 18.799H36.0523C36.9074 18.7989 37.6006 19.5435 37.6006 20.4619Z" fill="#08325A"/>
<path opacity="0.59" d="M17.372 25.3446C17.372 26.2484 16.6899 26.9811 15.8484 26.9811H13.9936C13.1522 26.9811 12.47 26.2484 12.47 25.3446C12.47 24.4408 13.1521 23.7081 13.9936 23.7081H15.8484C16.6899 23.7081 17.372 24.4408 17.372 25.3446Z" fill="#08325A"/>
<path opacity="0.59" d="M24.2613 25.3446C24.2613 26.2484 23.5791 26.9811 22.7377 26.9811H20.8829C20.0414 26.9811 19.3593 26.2484 19.3593 25.3446C19.3593 24.4408 20.0414 23.7081 20.8829 23.7081H22.7377C23.5791 23.7081 24.2613 24.4408 24.2613 25.3446Z" fill="#08325A"/>
<path opacity="0.59" d="M30.8855 25.3446C30.8855 26.2484 30.2034 26.9811 29.3619 26.9811H27.5071C26.6657 26.9811 25.9835 26.2484 25.9835 25.3446C25.9835 24.4408 26.6657 23.7081 27.5071 23.7081H29.3619C30.2034 23.7081 30.8855 24.4408 30.8855 25.3446Z" fill="#08325A"/>
<path opacity="0.59" d="M37.7748 25.3446C37.7748 26.2484 37.0927 26.9811 36.2512 26.9811H34.3964C33.5549 26.9811 32.8728 26.2484 32.8728 25.3446C32.8728 24.4408 33.5549 23.7081 34.3964 23.7081H36.2512C37.0927 23.7081 37.7748 24.4408 37.7748 25.3446Z" fill="#08325A"/>
<g opacity="0.59">
<path opacity="0.63" d="M17.372 29.8815C17.372 30.7853 16.6899 31.518 15.8484 31.518H13.9936C13.1522 31.518 12.47 30.7853 12.47 29.8815C12.47 28.9777 13.1521 28.245 13.9936 28.245H15.8484C16.6899 28.245 17.372 28.9777 17.372 29.8815Z" fill="url(#paint0_linear_217_5888)"/>
<path opacity="0.59" d="M24.2613 29.8816C24.2613 30.7854 23.5792 31.5181 22.7377 31.5181H20.8829C20.0414 31.5181 19.3593 30.7854 19.3593 29.8816C19.3593 28.9778 20.0414 28.2451 20.8829 28.2451H22.7377C23.5792 28.2451 24.2613 28.9778 24.2613 29.8816Z" fill="#08325A"/>
<path opacity="0.59" d="M30.8855 29.8816C30.8855 30.7854 30.2034 31.5181 29.362 31.5181H27.5072C26.6657 31.5181 25.9836 30.7854 25.9836 29.8816C25.9836 28.9778 26.6657 28.2451 27.5072 28.2451H29.362C30.2034 28.2451 30.8855 28.9778 30.8855 29.8816Z" fill="#08325A"/>
</g>
<g opacity="0.59">
<path opacity="0.63" d="M17.372 34.8624C17.372 35.7662 16.6899 36.4989 15.8484 36.4989H13.9936C13.1522 36.4989 12.47 35.7662 12.47 34.8624C12.47 33.9586 13.1521 33.2259 13.9936 33.2259H15.8484C16.6899 33.2259 17.372 33.9586 17.372 34.8624Z" fill="url(#paint1_linear_217_5888)"/>
<path opacity="0.59" d="M24.2613 34.8624C24.2613 35.7663 23.5792 36.4989 22.7377 36.4989H20.8829C20.0414 36.4989 19.3593 35.7663 19.3593 34.8624C19.3593 33.9586 20.0414 33.226 20.8829 33.226H22.7377C23.5792 33.226 24.2613 33.9586 24.2613 34.8624Z" fill="#08325A"/>
<path opacity="0.59" d="M30.8855 34.8624C30.8855 35.7663 30.2034 36.4989 29.362 36.4989H27.5072C26.6657 36.4989 25.9836 35.7663 25.9836 34.8624C25.9836 33.9586 26.6657 33.226 27.5072 33.226H29.362C30.2034 33.226 30.8855 33.9586 30.8855 34.8624Z" fill="#08325A"/>
</g>
<path opacity="0.59" d="M37.1124 34.7284C37.1124 35.8725 36.2489 36.7999 35.1838 36.7999H35.0663C34.0012 36.7999 33.1378 35.8725 33.1378 34.7284V30.76C33.1378 29.616 34.0012 28.6885 35.0663 28.6885H35.1838C36.2489 28.6885 37.1124 29.616 37.1124 30.76V34.7284Z" fill="#08325A"/>
<g opacity="0.7">
<path d="M35.8428 8.8372C35.8428 9.03368 35.6835 9.19296 35.487 9.19296H34.4909C34.2944 9.19296 34.1351 9.03368 34.1351 8.8372C34.1351 8.64072 34.2944 8.48145 34.4909 8.48145H35.487C35.6835 8.48145 35.8428 8.64072 35.8428 8.8372Z" fill="#08325A"/>
<path d="M35.8428 13.6751C35.8428 13.8716 35.6835 14.0309 35.487 14.0309H34.4909C34.2944 14.0309 34.1351 13.8716 34.1351 13.6751C34.1351 13.4786 34.2944 13.3193 34.4909 13.3193H35.487C35.6835 13.3193 35.8428 13.4786 35.8428 13.6751Z" fill="#08325A"/>
<path d="M34.2774 10.8295C34.2774 11.026 34.1181 11.1852 33.9216 11.1852C33.7251 11.1852 33.5659 11.026 33.5659 10.8295V9.83336C33.5659 9.63688 33.7251 9.4776 33.9216 9.4776C34.1181 9.4776 34.2774 9.63688 34.2774 9.83336V10.8295Z" fill="#08325A"/>
<path d="M34.2774 12.8215C34.2774 13.018 34.1181 13.1773 33.9216 13.1773C33.7251 13.1773 33.5659 13.018 33.5659 12.8215V11.8254C33.5659 11.6289 33.7251 11.4696 33.9216 11.4696C34.1181 11.4696 34.2774 11.6289 34.2774 11.8254V12.8215Z" fill="#08325A"/>
<path d="M36.6966 10.8295C36.6966 11.026 36.5373 11.1852 36.3408 11.1852C36.1443 11.1852 35.9851 11.026 35.9851 10.8295V9.83336C35.9851 9.63688 36.1443 9.4776 36.3408 9.4776C36.5373 9.4776 36.6966 9.63688 36.6966 9.83336V10.8295Z" fill="#08325A"/>
<path d="M36.6966 12.8215C36.6966 13.018 36.5373 13.1773 36.3408 13.1773C36.1443 13.1773 35.9851 13.018 35.9851 12.8215V11.8254C35.9851 11.6289 36.1443 11.4696 36.3408 11.4696C36.5373 11.4696 36.6966 11.6289 36.6966 11.8254V12.8215Z" fill="#08325A"/>
</g>
<path d="M2.76121 24.6019L1.90411 32.1717L18.1394 34.0099L18.9965 26.4401L2.76121 24.6019Z" fill="#236099"/>
<path opacity="0.5" d="M17.9222 27.9354L17.4316 32.267C17.0829 32.2275 16.7539 32.5131 16.7101 32.8992C16.7087 32.9115 16.7059 32.9408 16.7065 32.9409L3.60138 31.4566C3.602 31.4567 3.60593 31.4274 3.60731 31.4151C3.65103 31.0291 3.40407 30.6813 3.04959 30.6411C3.04439 30.6405 3.03821 30.6374 3.03821 30.6374L3.51776 26.4033C4.11541 26.471 4.21615 26.0806 4.25988 25.6946C4.26127 25.6823 4.25633 25.6794 4.25572 25.6793L17.3609 27.1636C17.3603 27.1636 17.3595 27.1659 17.3581 27.1781C17.3144 27.5642 17.5736 27.8959 17.9222 27.9354Z" fill="white"/>
<path d="M10.4629 31.6841C11.7866 31.6841 12.8597 30.611 12.8597 29.2873C12.8597 27.9636 11.7866 26.8905 10.4629 26.8905C9.13916 26.8905 8.06608 27.9636 8.06608 29.2873C8.06608 30.611 9.13916 31.6841 10.4629 31.6841Z" fill="url(#paint2_linear_217_5888)"/>
<path d="M10.0401 30.8662L10.0687 30.6144C9.80733 30.5741 9.55468 30.4828 9.37941 30.3811C9.31681 30.3449 9.29161 30.2671 9.31839 30.1999L9.40892 29.9726C9.44214 29.8892 9.54078 29.8553 9.61912 29.8991C9.79339 29.9965 10.0124 30.0828 10.256 30.1103C10.5088 30.139 10.7071 30.0746 10.727 29.8989C10.745 29.7403 10.6099 29.6296 10.2692 29.4955C9.78329 29.3015 9.44803 29.0422 9.49804 28.6008C9.54319 28.2022 9.86909 27.9309 10.384 27.9068L10.4125 27.6549C10.4217 27.5739 10.4949 27.5156 10.5759 27.5248L10.7239 27.5416C10.8049 27.5508 10.8631 27.6239 10.854 27.7049L10.8284 27.931C11.0702 27.9683 11.2423 28.0299 11.377 28.0951C11.4461 28.1285 11.4766 28.2104 11.4483 28.2817L11.3649 28.4919C11.3328 28.573 11.2382 28.6087 11.1606 28.5689C11.0369 28.5054 10.86 28.4338 10.6225 28.4069C10.3225 28.3729 10.2228 28.4875 10.2101 28.5989C10.1946 28.7361 10.3639 28.8507 10.7403 29.0149C11.2785 29.2452 11.4837 29.5028 11.4366 29.9185C11.3934 30.2999 11.0718 30.6108 10.5135 30.6344L10.4816 30.9162C10.4724 30.9972 10.3993 31.0555 10.3182 31.0463L10.1702 31.0295C10.0892 31.0204 10.031 30.9472 10.0401 30.8662Z" fill="white"/>
<path d="M2.94075 26.5504C2.93977 26.5467 2.93942 26.5427 2.93989 26.5386L3.10064 25.1191C3.10164 25.1105 3.10598 25.1027 3.11274 25.0973C3.1195 25.0919 3.12811 25.0894 3.13672 25.0904L7.14595 25.5445C7.16384 25.5465 7.17671 25.5627 7.17469 25.5806C7.17263 25.5985 7.15652 25.6113 7.13862 25.6093L3.16175 25.1589L3.00471 26.5459C3.00265 26.5638 2.98655 26.5766 2.96864 26.5746C2.95485 26.573 2.94405 26.5631 2.94075 26.5504Z" fill="#BDD0FB"/>
<path d="M13.7258 33.0942C13.7248 33.0904 13.7245 33.0864 13.725 33.0823C13.727 33.0644 13.7431 33.0515 13.761 33.0535L17.688 33.4984L17.8564 32.0117C17.8585 31.9938 17.8746 31.981 17.8925 31.983C17.9104 31.985 17.9233 32.0011 17.9212 32.019L17.7491 33.5381C17.7481 33.5467 17.7438 33.5545 17.737 33.5599C17.7303 33.5653 17.7217 33.5678 17.7131 33.5668L13.7537 33.1183C13.7399 33.1168 13.7291 33.1068 13.7258 33.0942Z" fill="white"/>
<path d="M4.9111 22.8744L2.29991 30.0853L17.6643 35.6491L20.2755 28.4382L4.9111 22.8744Z" fill="#9DCFFF"/>
<path d="M18.8727 29.6546L17.3885 33.7535C17.0586 33.634 16.6681 33.8525 16.5359 34.2178C16.5317 34.2294 16.5351 34.2273 16.5186 34.2746L4.11764 29.7843C4.13529 29.7374 4.13481 29.7405 4.13901 29.7289C4.27129 29.3636 4.11298 28.959 3.77755 28.8375C3.77262 28.8357 3.76837 28.8223 3.76837 28.8223L5.21914 24.8157C5.78468 25.0205 5.97792 24.6579 6.1102 24.2925C6.11441 24.2809 6.11482 24.2705 6.11423 24.2703L18.5152 28.7607C18.5146 28.7605 18.5089 28.7689 18.5047 28.7805C18.3724 29.1458 18.5428 29.5352 18.8727 29.6546Z" fill="#D1E9FF"/>
<path d="M11.3074 31.6334C12.6311 31.6334 13.7042 30.5603 13.7042 29.2366C13.7042 27.9129 12.6311 26.8398 11.3074 26.8398C9.98372 26.8398 8.91064 27.9129 8.91064 29.2366C8.91064 30.5603 9.98372 31.6334 11.3074 31.6334Z" fill="url(#paint3_linear_217_5888)"/>
<path d="M10.5291 30.6743L10.6154 30.436C10.3706 30.3361 10.1461 30.1885 9.99925 30.0489C9.94681 29.9991 9.94037 29.9176 9.98203 29.8585L10.1229 29.6584C10.1746 29.5851 10.2784 29.575 10.3445 29.6358C10.4913 29.7711 10.6843 29.9059 10.9147 29.9894C11.154 30.076 11.3618 30.0595 11.422 29.8932C11.4764 29.7432 11.3708 29.604 11.0705 29.3944C10.6431 29.0928 10.3773 28.7626 10.5285 28.3449C10.6651 27.9678 11.0451 27.7797 11.5516 27.8759L11.6379 27.6376C11.6656 27.5609 11.7503 27.5213 11.827 27.549L11.967 27.5997C12.0437 27.6275 12.0833 27.7122 12.0555 27.7889L11.9781 28.0028C12.2046 28.0953 12.3577 28.1952 12.4736 28.2899C12.533 28.3384 12.5436 28.4252 12.4995 28.488L12.3695 28.6731C12.3194 28.7445 12.2191 28.7572 12.1529 28.7004C12.0474 28.6099 11.8919 28.4992 11.6673 28.4178C11.3834 28.315 11.2597 28.4033 11.2215 28.5087C11.1745 28.6385 11.3126 28.7894 11.6405 29.0366C12.1104 29.3856 12.2501 29.6839 12.1077 30.0773C11.977 30.4382 11.5918 30.6657 11.0434 30.5589L10.9468 30.8256C10.9191 30.9023 10.8344 30.9419 10.7577 30.9141L10.6177 30.8634C10.541 30.8357 10.5013 30.751 10.5291 30.6743Z" fill="white"/>
<path d="M4.65882 24.8753C4.65874 24.8714 4.65936 24.8674 4.66074 24.8635L5.16417 23.4732C5.17033 23.4563 5.18899 23.4475 5.20592 23.4537L8.95255 24.8103C8.96949 24.8164 8.97838 24.8351 8.97213 24.8521C8.96597 24.869 8.94732 24.8778 8.93037 24.8716L5.21436 23.5261L4.72207 24.8857C4.71591 24.9026 4.69726 24.9114 4.68032 24.9052C4.66729 24.9005 4.6591 24.8883 4.65882 24.8753Z" fill="#BDD0FB"/>
<path d="M13.5971 33.6823C13.597 33.6784 13.5977 33.6745 13.599 33.6706C13.6052 33.6536 13.6239 33.6449 13.6408 33.651L17.3568 34.9966L17.8491 33.6369C17.8553 33.62 17.8739 33.6112 17.8909 33.6174C17.9078 33.6235 17.9167 33.6421 17.9105 33.6591L17.4071 35.0494C17.4041 35.0576 17.398 35.0642 17.3902 35.0678C17.3824 35.0715 17.3734 35.0719 17.3653 35.069L13.6186 33.7123C13.6056 33.7076 13.5974 33.6954 13.5971 33.6823Z" fill="white"/>
<path d="M8.15163 21.4106L3.48828 27.498L16.4589 37.4343L21.1222 31.3469L8.15163 21.4106Z" fill="#4AA1F3"/>
<path d="M19.4179 32.0916L16.7669 35.5521C16.4884 35.3387 16.0495 35.424 15.8132 35.7325C15.8057 35.7423 15.809 35.7361 15.779 35.7763L5.30909 27.7557C5.34007 27.7163 5.3364 27.7221 5.3439 27.7123C5.58018 27.4039 5.55307 26.9741 5.26987 26.7572C5.26571 26.754 5.26755 26.7437 5.26755 26.7437L7.85888 23.361C8.33634 23.7268 8.62925 23.434 8.86552 23.1256C8.87303 23.1158 8.87585 23.1008 8.87536 23.1004L19.3452 31.121C19.3447 31.1206 19.3374 31.1322 19.3299 31.1419C19.0936 31.4504 19.1394 31.8782 19.4179 32.0916Z" fill="#9DCFFF"/>
<path d="M12.5216 31.7959C13.8408 31.6869 14.8219 30.5292 14.713 29.21C14.604 27.8907 13.4463 26.9096 12.1271 27.0186C10.8079 27.1275 9.82675 28.2853 9.93569 29.6045C10.0446 30.9237 11.2024 31.9048 12.5216 31.7959Z" fill="#236099"/>
<path d="M11.1493 30.5438L11.3034 30.3426C11.1001 30.1735 10.9306 29.9651 10.8327 29.7878C10.7977 29.7244 10.8161 29.6448 10.8737 29.601L11.0684 29.4527C11.1398 29.3983 11.2418 29.4201 11.2864 29.498C11.3856 29.6712 11.5289 29.8579 11.7235 30.007C11.9255 30.1617 12.1287 30.2087 12.2362 30.0683C12.3332 29.9416 12.2745 29.7771 12.0515 29.4867C11.7348 29.0703 11.581 28.6753 11.8511 28.3227C12.0951 28.0042 12.5141 27.9395 12.968 28.1839L13.1221 27.9827C13.1717 27.918 13.2644 27.9057 13.3291 27.9553L13.4474 28.0459C13.5121 28.0955 13.5244 28.1882 13.4748 28.2529L13.3364 28.4335C13.5245 28.59 13.6404 28.7314 13.7223 28.8567C13.7643 28.9209 13.7483 29.0068 13.6873 29.0533L13.5075 29.1906C13.4382 29.2436 13.3387 29.2255 13.2927 29.1514C13.2194 29.0332 13.1046 28.8808 12.9149 28.7355C12.6752 28.5519 12.5307 28.5987 12.4625 28.6878C12.3786 28.7973 12.4647 28.9828 12.7028 29.3174C13.0456 29.7919 13.0889 30.1184 12.8344 30.4505C12.601 30.7552 12.1652 30.856 11.6745 30.5888L11.502 30.814C11.4524 30.8787 11.3597 30.891 11.295 30.8414L11.1767 30.7508C11.112 30.7012 11.0997 30.6085 11.1493 30.5438Z" fill="white"/>
<path d="M7.27013 23.2222C7.26998 23.2151 7.27219 23.2078 7.27686 23.2017L8.17602 22.028C8.18128 22.0211 8.18904 22.0166 8.1976 22.0155C8.20617 22.0143 8.21485 22.0166 8.2217 22.0219L11.4247 24.4756C11.4389 24.4866 11.4416 24.507 11.4307 24.5213C11.4198 24.5356 11.3994 24.5383 11.3851 24.5274L8.2079 22.0935L7.32857 23.2414C7.31764 23.2557 7.29719 23.2584 7.28288 23.2475C7.27473 23.2411 7.27033 23.2317 7.27013 23.2222Z" fill="#BDD0FB"/>
<path d="M13.1767 34.3447C13.1765 34.3376 13.1787 34.3304 13.1834 34.3242C13.1943 34.3099 13.2148 34.3072 13.2291 34.3182L16.3664 36.7216L17.2458 35.5737C17.2567 35.5594 17.2771 35.5567 17.2915 35.5676C17.3057 35.5786 17.3084 35.599 17.2975 35.6133L16.3983 36.7871C16.3931 36.794 16.3853 36.7985 16.3768 36.7996C16.3682 36.8008 16.3595 36.7984 16.3527 36.7932L13.1894 34.3699C13.1813 34.3637 13.1769 34.3543 13.1767 34.3447Z" fill="#BDD0FB"/>
<path d="M8.84281 27.0193C8.61479 27.317 8.18864 27.3734 7.89099 27.1454C7.59334 26.9174 7.53689 26.4912 7.76491 26.1936C7.99294 25.8959 8.41908 25.8395 8.71673 26.0675C9.01437 26.2955 9.07082 26.7217 8.84281 27.0193Z" fill="#236099"/>
<path d="M16.9516 33.2313C16.7235 33.529 16.2974 33.5854 15.9998 33.3574C15.7021 33.1294 15.6456 32.7033 15.8737 32.4056C16.1017 32.1079 16.5278 32.0515 16.8255 32.2795C17.1231 32.5075 17.1796 32.9337 16.9516 33.2313Z" fill="#236099"/>
<path d="M10.5475 34.3152H1.73148C1.68534 34.3152 1.64793 34.2778 1.64793 34.2316V32.8545C1.64793 32.8084 1.68534 32.771 1.73148 32.771H10.5474C10.5936 32.771 10.631 32.8084 10.631 32.8545V34.2316C10.631 34.2778 10.5936 34.3152 10.5475 34.3152Z" fill="#FFCB52"/>
<path d="M10.5474 32.6778H1.73147C1.68533 32.6778 1.64792 32.6404 1.64792 32.5942V31.2172C1.64792 31.171 1.68533 31.1336 1.73147 31.1336H10.5474C10.5936 31.1336 10.631 31.171 10.631 31.2172V32.5942C10.631 32.6404 10.5936 32.6778 10.5474 32.6778Z" fill="#FFCB52"/>
<path d="M10.5475 35.9795H1.73148C1.68534 35.9795 1.64793 35.9421 1.64793 35.896V34.5189C1.64793 34.4728 1.68534 34.4354 1.73148 34.4354H10.5474C10.5936 34.4354 10.631 34.4728 10.631 34.5189V35.896C10.631 35.9421 10.5936 35.9795 10.5475 35.9795Z" fill="#FFCB52"/>
<path d="M10.5475 37.6445H1.73148C1.68534 37.6445 1.64793 37.607 1.64793 37.5609V36.1838C1.64793 36.1377 1.68534 36.1003 1.73148 36.1003H10.5474C10.5936 36.1003 10.631 36.1377 10.631 36.1838V37.5609C10.631 37.607 10.5936 37.6445 10.5475 37.6445Z" fill="#FFCB52"/>
<path d="M10.5475 39.3096H1.73148C1.68534 39.3096 1.64793 39.2722 1.64793 39.226V37.8489C1.64793 37.8028 1.68534 37.7654 1.73148 37.7654H10.5474C10.5936 37.7654 10.631 37.8028 10.631 37.8489V39.226C10.631 39.2722 10.5936 39.3096 10.5475 39.3096Z" fill="#FFCB52"/>
<path d="M10.5475 40.9242H1.73148C1.68534 40.9242 1.64793 40.8868 1.64793 40.8407V39.4636C1.64793 39.4175 1.68534 39.3801 1.73148 39.3801H10.5474C10.5936 39.3801 10.631 39.4175 10.631 39.4636V40.8407C10.631 40.8868 10.5936 40.9242 10.5475 40.9242Z" fill="#FFCB52"/>
<path d="M10.5475 42.5391H1.73148C1.68534 42.5391 1.64793 42.5017 1.64793 42.4556V41.0785C1.64793 41.0323 1.68534 40.9949 1.73148 40.9949H10.5474C10.5936 40.9949 10.631 41.0323 10.631 41.0785V42.4556C10.631 42.5017 10.5936 42.5391 10.5475 42.5391Z" fill="#FFCB52"/>
<path d="M19.8997 37.4246H11.0837C11.0376 37.4246 11.0002 37.3872 11.0002 37.3411V35.964C11.0002 35.9178 11.0376 35.8804 11.0837 35.8804H19.8997C19.9458 35.8804 19.9832 35.9178 19.9832 35.964V37.3411C19.9832 37.3872 19.9458 37.4246 19.8997 37.4246Z" fill="#FFCB52"/>
<path d="M19.8997 39.0894H11.0837C11.0376 39.0894 11.0002 39.052 11.0002 39.0059V37.6288C11.0002 37.5826 11.0376 37.5452 11.0837 37.5452H19.8997C19.9458 37.5452 19.9832 37.5826 19.9832 37.6288V39.0058C19.9832 39.052 19.9458 39.0894 19.8997 39.0894Z" fill="#FFCB52"/>
<path d="M19.8997 40.7043H11.0837C11.0376 40.7043 11.0002 40.6669 11.0002 40.6208V39.2437C11.0002 39.1975 11.0376 39.1602 11.0837 39.1602H19.8997C19.9458 39.1602 19.9832 39.1976 19.9832 39.2437V40.6208C19.9832 40.6669 19.9458 40.7043 19.8997 40.7043Z" fill="#FFCB52"/>
<path d="M19.8997 42.3193H11.0837C11.0376 42.3193 11.0002 42.2818 11.0002 42.2357V40.8586C11.0002 40.8125 11.0376 40.7751 11.0837 40.7751H19.8997C19.9458 40.7751 19.9832 40.8125 19.9832 40.8586V42.2357C19.9832 42.2818 19.9458 42.3193 19.8997 42.3193Z" fill="#FFCB52"/>
</g>
<defs>
<linearGradient id="paint0_linear_217_5888" x1="24.6148" y1="15.5064" x2="39.9993" y2="-7.30779" gradientUnits="userSpaceOnUse">
<stop stop-color="#09005D"/>
<stop offset="1" stop-color="#1A0F91"/>
</linearGradient>
<linearGradient id="paint1_linear_217_5888" x1="26.9235" y1="17.0635" x2="42.308" y2="-5.7506" gradientUnits="userSpaceOnUse">
<stop stop-color="#09005D"/>
<stop offset="1" stop-color="#1A0F91"/>
</linearGradient>
<linearGradient id="paint2_linear_217_5888" x1="10.7839" y1="27.6214" x2="6.77205" y2="48.4374" gradientUnits="userSpaceOnUse">
<stop stop-color="#50E7B7"/>
<stop offset="0.9964" stop-color="#323992"/>
</linearGradient>
<linearGradient id="paint3_linear_217_5888" x1="12.0069" y1="27.691" x2="3.26624" y2="47.0042" gradientUnits="userSpaceOnUse">
<stop stop-color="#50E7B7"/>
<stop offset="0.9964" stop-color="#323992"/>
</linearGradient>
<clipPath id="clip0_217_5888">
<rect width="44" height="44" fill="white"/>
</clipPath>
</defs>
</svg>
