<svg width="26" height="24" viewBox="0 0 26 24" fill="none" xmlns="http://www.w3.org/2000/svg">
<path d="M24.3333 5.70667V2.66667C24.3333 1.2 23.1333 0 21.6667 0H3C1.52 0 0.333336 1.2 0.333336 2.66667V21.3333C0.333336 22.8 1.52 24 3 24H21.6667C23.1333 24 24.3333 22.8 24.3333 21.3333V18.2933C25.12 17.8267 25.6667 16.9867 25.6667 16V8C25.6667 7.01333 25.12 6.17333 24.3333 5.70667ZM23 8V16H13.6667V8H23ZM3 21.3333V2.66667H21.6667V5.33333H13.6667C12.2 5.33333 11 6.53333 11 8V16C11 17.4667 12.2 18.6667 13.6667 18.6667H21.6667V21.3333H3Z" fill="#31475E"/>
<path d="M17.6667 14C18.7712 14 19.6667 13.1046 19.6667 12C19.6667 10.8954 18.7712 10 17.6667 10C16.5621 10 15.6667 10.8954 15.6667 12C15.6667 13.1046 16.5621 14 17.6667 14Z" fill="#31475E"/>
</svg>
